<svg width="409" height="202" viewBox="0 0 409 202" fill="none" xmlns="http://www.w3.org/2000/svg">
<path fill-rule="evenodd" clip-rule="evenodd" d="M233.218 140.886C257.857 140.886 277.831 120.912 277.831 96.2729C277.831 71.6337 257.857 51.6597 233.218 51.6597C208.579 51.6597 188.605 71.6337 188.605 96.2729C188.605 120.912 208.579 140.886 233.218 140.886ZM233.218 118.304C245.385 118.304 255.249 108.44 255.249 96.2729C255.249 84.1054 245.385 74.2416 233.218 74.2416C221.05 74.2416 211.187 84.1054 211.187 96.2729C211.187 108.44 221.05 118.304 233.218 118.304ZM118.259 51.6625H173.889V70.5543H138.778L137.638 83.5281C137.638 83.5281 154.053 82.3543 162.945 86.487C176.168 92.6325 181.64 104.924 178.22 118.808C174.004 135.928 156.437 140.886 138.778 140.886C125.555 140.886 108 132.009 108 132.009L116.664 114.028C116.664 114.028 126.011 119.491 133.991 120.174C142.764 120.924 155.232 121.084 154.51 110.841C153.826 101.14 135.131 102.192 135.131 102.192H114.156L118.259 51.6625ZM376.427 96.3868C376.427 121.026 356.453 141 331.814 141C307.175 141 287.201 121.026 287.201 96.3868C287.201 71.7476 307.175 51.7736 331.814 51.7736C356.453 51.7736 376.427 71.7476 376.427 96.3868ZM353.846 96.3868C353.846 108.554 343.982 118.418 331.815 118.418C319.647 118.418 309.783 108.554 309.783 96.3868C309.783 84.2193 319.647 74.3556 331.815 74.3556C343.982 74.3556 353.846 84.2193 353.846 96.3868Z" fill="#A10B30"/>
<path fill-rule="evenodd" clip-rule="evenodd" d="M233.218 140.886C257.857 140.886 277.831 120.912 277.831 96.2729C277.831 71.6337 257.857 51.6597 233.218 51.6597C208.579 51.6597 188.605 71.6337 188.605 96.2729C188.605 120.912 208.579 140.886 233.218 140.886ZM233.218 118.304C245.385 118.304 255.249 108.44 255.249 96.2729C255.249 84.1054 245.385 74.2416 233.218 74.2416C221.05 74.2416 211.187 84.1054 211.187 96.2729C211.187 108.44 221.05 118.304 233.218 118.304ZM118.259 51.6625H173.889V70.5543H138.778L137.638 83.5281C137.638 83.5281 154.053 82.3543 162.945 86.487C176.168 92.6325 181.64 104.924 178.22 118.808C174.004 135.928 156.437 140.886 138.778 140.886C125.555 140.886 108 132.009 108 132.009L116.664 114.028C116.664 114.028 126.011 119.491 133.991 120.174C142.764 120.924 155.232 121.084 154.51 110.841C153.826 101.14 135.131 102.192 135.131 102.192H114.156L118.259 51.6625ZM376.427 96.3868C376.427 121.026 356.453 141 331.814 141C307.175 141 287.201 121.026 287.201 96.3868C287.201 71.7476 307.175 51.7736 331.814 51.7736C356.453 51.7736 376.427 71.7476 376.427 96.3868ZM353.846 96.3868C353.846 108.554 343.982 118.418 331.815 118.418C319.647 118.418 309.783 108.554 309.783 96.3868C309.783 84.2193 319.647 74.3556 331.815 74.3556C343.982 74.3556 353.846 84.2193 353.846 96.3868Z" fill="#A10B30"/>
<path d="M145 51V42.5C145 20.4086 127.091 2.5 105 2.5H74V2.5C56.0507 2.5 41.5 17.0507 41.5 35V83.5C41.5 90.1274 46.8726 95.5 53.5 95.5V95.5C60.1274 95.5 65.5 100.873 65.5 107.5V120.5V125.75C65.5 143.009 51.5089 157 34.25 157H12.5C7.2533 157 3 161.253 3 166.5V166.5C3 171.747 7.2533 176 12.5 176H125.75C130.582 176 134.5 179.918 134.5 184.75V184.75C134.5 189.582 138.418 193.5 143.25 193.5H191" stroke="#D8859A" stroke-width="5"/>
<path d="M224 52V52C224 33.6544 245.711 23.9579 259.373 36.202L262 38.5569C270.567 46.2345 283.512 46.3242 292.184 38.7659L295.692 35.7091C309.673 23.5235 331.5 33.4535 331.5 52V52" stroke="#F3C3CF" stroke-width="5"/>
<path d="M378 97.5V97.5C393.74 97.5 406.5 110.26 406.5 126V156.5V174.112C406.5 181.506 400.506 187.5 393.112 187.5V187.5C386.449 187.5 380.8 182.601 379.858 176.005L379.75 175.25C378.746 168.221 372.726 163 365.626 163H301.75C293.328 163 286.5 169.828 286.5 178.25V178.25C286.5 186.672 279.672 193.5 271.25 193.5H267.5H237.5" stroke="#F3C3CF" stroke-width="5"/>
<path d="M201.612 195.89C201.612 198.007 199.896 199.723 197.779 199.723H191.862C188.072 199.723 185 196.651 185 192.862V192.862C185 189.072 188.072 186 191.862 186H197.779C199.896 186 201.612 187.716 201.612 189.834V195.89Z" fill="#D8859A"/>
<rect x="200.168" y="196.112" width="2.16681" height="5.05589" rx="1.08341" transform="rotate(-90 200.168 196.112)" fill="#D8859A"/>
<rect x="200.168" y="191.778" width="2.16681" height="5.05589" rx="1.08341" transform="rotate(-90 200.168 191.778)" fill="#D8859A"/>
<path d="M232 188.308C232 185.376 234.376 183 237.308 183H245.5C250.747 183 255 187.253 255 192.5V192.5C255 197.747 250.747 202 245.5 202H237.308C234.376 202 232 199.624 232 196.692V188.308Z" fill="#A10B30"/>
<ellipse cx="235.5" cy="189" rx="1.5" ry="2" fill="white"/>
<ellipse cx="235.5" cy="196" rx="1.5" ry="2" fill="white"/>
</svg>
