<svg width="290" height="104" viewBox="0 0 290 104" fill="none" xmlns="http://www.w3.org/2000/svg">
<path d="M0 65.3622L29.1393 0H55.7028L27.6904 65.3622H45.8824V41.5356H71.1579V66.9721H83.5542V85.8081H71.1579V104H45.8824V85.8081H0V65.3622Z" fill="#B33453"/>
<path d="M0 65.3622L29.1393 0H55.7028L27.6904 65.3622H45.8824V41.5356H71.1579V66.9721H83.5542V85.8081H71.1579V104H45.8824V85.8081H0V65.3622Z" fill="#A10B30"/>
<path fill-rule="evenodd" clip-rule="evenodd" d="M144.542 104C173.26 104 196.541 80.7188 196.541 52C196.541 23.2812 173.26 0 144.542 0C115.823 0 92.5415 23.2812 92.5415 52C92.5415 80.7188 115.823 104 144.542 104ZM144.542 77.679C158.724 77.679 170.221 66.1821 170.221 52C170.221 37.8178 158.724 26.3209 144.542 26.3209C130.359 26.3209 118.863 37.8178 118.863 52C118.863 66.1821 130.359 77.679 144.542 77.679Z" fill="#B33453"/>
<path fill-rule="evenodd" clip-rule="evenodd" d="M144.542 104C173.26 104 196.541 80.7188 196.541 52C196.541 23.2812 173.26 0 144.542 0C115.823 0 92.5415 23.2812 92.5415 52C92.5415 80.7188 115.823 104 144.542 104ZM144.542 77.679C158.724 77.679 170.221 66.1821 170.221 52C170.221 37.8178 158.724 26.3209 144.542 26.3209C130.359 26.3209 118.863 37.8178 118.863 52C118.863 66.1821 130.359 77.679 144.542 77.679Z" fill="#A10B30"/>
<path d="M205.529 65.3622L234.669 0H261.232L233.22 65.3622H251.412V41.5356H276.687V66.9721H289.083V85.8081H276.687V104H251.412V85.8081H205.529V65.3622Z" fill="#B33453"/>
<path d="M205.529 65.3622L234.669 0H261.232L233.22 65.3622H251.412V41.5356H276.687V66.9721H289.083V85.8081H276.687V104H251.412V85.8081H205.529V65.3622Z" fill="#A10B30"/>
</svg>
