<svg width="19" height="20" viewBox="0 0 19 20" fill="none" xmlns="http://www.w3.org/2000/svg">
<g id="Default/Arrow_Minimal_Up 2">
<path id="Arrow-circle-up" d="M9.99663 18.4873C11.5692 18.4873 13.1065 18.021 14.414 17.1473C15.7216 16.2736 16.7407 15.0319 17.3425 13.579C17.9443 12.1261 18.1018 10.5274 17.795 8.98504C17.4882 7.44267 16.7309 6.0259 15.6189 4.91391C14.5069 3.80193 13.0902 3.04469 11.5478 2.73789C10.0055 2.4311 8.40676 2.58854 6.95389 3.19034C5.50101 3.79214 4.25921 4.81119 3.38554 6.11875C2.51186 7.4263 2.04552 8.96361 2.04552 10.5362C2.04789 12.6442 2.88638 14.6653 4.37699 16.1559C5.86759 17.6465 7.88859 18.4849 9.99663 18.4873ZM9.99663 3.80833C11.3273 3.80833 12.628 4.20292 13.7344 4.94219C14.8408 5.68145 15.7031 6.73223 16.2124 7.96158C16.7216 9.19094 16.8548 10.5437 16.5952 11.8487C16.3356 13.1538 15.6948 14.3526 14.7539 15.2935C13.813 16.2344 12.6142 16.8751 11.3092 17.1347C10.0041 17.3943 8.65132 17.2611 7.42196 16.7519C6.19261 16.2427 5.14189 15.3804 4.40262 14.274C3.66335 13.1676 3.26877 11.8668 3.26877 10.5362C3.27071 8.75245 3.98016 7.04228 5.24146 5.78098C6.50276 4.51968 8.21288 3.81028 9.99663 3.80833ZM7.11789 10.1537C7.05945 10.0973 7.01286 10.0298 6.98077 9.95523C6.94868 9.88063 6.93179 9.80041 6.93104 9.7192C6.9303 9.63799 6.94572 9.55746 6.97644 9.48228C7.00715 9.4071 7.05253 9.33875 7.10993 9.28129C7.16733 9.22384 7.23562 9.17839 7.31077 9.1476C7.38592 9.11681 7.46643 9.10134 7.54764 9.10201C7.62885 9.10267 7.70914 9.11946 7.78377 9.15148C7.85841 9.1835 7.92592 9.23007 7.98237 9.28846L9.99663 11.3027L12.0109 9.28846C12.0677 9.23165 12.1352 9.18661 12.2094 9.15586C12.2836 9.12511 12.3632 9.10927 12.4435 9.10927C12.5239 9.10927 12.6034 9.12511 12.6777 9.15586C12.7519 9.18661 12.8193 9.23165 12.8762 9.28846C12.933 9.34527 12.978 9.41273 13.0088 9.48696C13.0395 9.56119 13.0553 9.64075 13.0553 9.7211C13.0553 9.80144 13.0395 9.881 13.0088 9.95523C12.978 10.0295 12.933 10.0969 12.8762 10.1537L10.4297 12.6002C10.3729 12.6571 10.3054 12.7022 10.2312 12.7329C10.1569 12.7637 10.0774 12.7795 9.99703 12.7795C9.91667 12.7795 9.83712 12.7637 9.76289 12.7329C9.68866 12.7022 9.62119 12.6571 9.56439 12.6002L7.11789 10.1537Z" fill="#212121"/>
</g>
</svg>
