<svg width="19" height="20" viewBox="0 0 19 20" fill="none" xmlns="http://www.w3.org/2000/svg">
<g id="Default/Arrow_Minimal_Up 2">
<path id="Arrow-circle-up" d="M9.45064 1.53906C7.87806 1.53906 6.34079 2.0054 5.03324 2.87908C3.72569 3.75276 2.70658 4.99451 2.10478 6.44738C1.50298 7.90026 1.34549 9.49897 1.65229 11.0413C1.95908 12.5837 2.71638 14.0005 3.82836 15.1125C4.94034 16.2244 6.35707 16.9817 7.89943 17.2885C9.44179 17.5953 11.0405 17.4378 12.4934 16.836C13.9463 16.2342 15.1881 15.2152 16.0617 13.9076C16.9354 12.6001 17.4017 11.0628 17.4017 9.49017C17.3994 7.38214 16.5609 5.36109 15.0703 3.87048C13.5797 2.37987 11.5587 1.54144 9.45064 1.53906ZM9.45064 16.218C8.11999 16.218 6.81925 15.8234 5.71285 15.0842C4.60646 14.3449 3.74412 13.2941 3.2349 12.0648C2.72569 10.8354 2.59244 9.48271 2.85204 8.17763C3.11164 6.87255 3.75242 5.67377 4.69333 4.73287C5.63424 3.79196 6.83302 3.15122 8.1381 2.89162C9.44317 2.63203 10.7959 2.76527 12.0253 3.27449C13.2547 3.7837 14.3054 4.64595 15.0446 5.75234C15.7839 6.85873 16.1785 8.15953 16.1785 9.49017C16.1766 11.2739 15.4671 12.9841 14.2058 14.2454C12.9445 15.5067 11.2344 16.2161 9.45064 16.218ZM12.3294 9.87264C12.3878 9.92903 12.4344 9.99653 12.4665 10.0711C12.4986 10.1457 12.5155 10.226 12.5162 10.3072C12.517 10.3884 12.5015 10.4689 12.4708 10.5441C12.4401 10.6193 12.3947 10.6876 12.3373 10.7451C12.2799 10.8025 12.2116 10.848 12.1365 10.8788C12.0613 10.9096 11.9808 10.925 11.8996 10.9244C11.8184 10.9237 11.7381 10.9069 11.6635 10.8749C11.5889 10.8429 11.5213 10.7963 11.4649 10.7379L9.45064 8.72365L7.43638 10.7379C7.37957 10.7947 7.31211 10.8398 7.23788 10.8705C7.16365 10.9013 7.08409 10.9171 7.00375 10.9171C6.9234 10.9171 6.84384 10.9013 6.76961 10.8705C6.69538 10.8398 6.62792 10.7947 6.57111 10.7379C6.5143 10.6811 6.46926 10.6136 6.43851 10.5394C6.40776 10.4652 6.39192 10.3856 6.39192 10.3053C6.39192 10.2249 6.40776 10.1454 6.43851 10.0711C6.46926 9.99691 6.5143 9.92945 6.57111 9.87264L9.0176 7.42614C9.0744 7.3693 9.14187 7.3242 9.2161 7.29344C9.29033 7.26268 9.36989 7.24685 9.45024 7.24685C9.53059 7.24685 9.61015 7.26268 9.68438 7.29344C9.75861 7.3242 9.82608 7.3693 9.88288 7.42614L12.3294 9.87264Z" fill="#212121"/>
</g>
</svg>
