<svg width="14" height="14" viewBox="0 0 14 14" fill="none" xmlns="http://www.w3.org/2000/svg">
<g id="Default/Arrow_Right">
<path id="arrow-right-Regular_1_" d="M12.519 7.29656L8.45307 11.3908C8.37087 11.4706 8.26077 11.5148 8.14655 11.5137C8.03233 11.5127 7.92311 11.4665 7.84237 11.3851C7.76164 11.3038 7.71586 11.1937 7.71492 11.0787C7.71399 10.9637 7.75795 10.8529 7.83734 10.7702L11.1598 7.42465H1.75594C1.64041 7.42465 1.5296 7.37843 1.4479 7.29617C1.36621 7.2139 1.32031 7.10232 1.32031 6.98598C1.32031 6.86964 1.36621 6.75806 1.4479 6.6758C1.5296 6.59353 1.64041 6.54732 1.75594 6.54732H11.1592L7.83677 3.20174C7.75505 3.11945 7.70915 3.00782 7.70915 2.89145C7.70915 2.77507 7.75505 2.66348 7.83677 2.58119C7.9185 2.4989 8.02935 2.45264 8.14492 2.45264C8.26049 2.45264 8.37134 2.4989 8.45307 2.58119L12.519 6.6754C12.6008 6.75778 12.6467 6.8695 12.6467 6.98598C12.6467 7.10247 12.6008 7.21419 12.519 7.29656Z" fill="#AEAEAE"/>
</g>
</svg>
