<svg width="33" height="33" viewBox="0 0 33 33" fill="none" xmlns="http://www.w3.org/2000/svg">
<g id="Default/Arrow_Right">
<path id="arrow-right-Regular_1_" d="M30.0164 17.6166L20.2014 27.5C20.0029 27.6928 19.7372 27.7993 19.4614 27.7968C19.1857 27.7942 18.922 27.6828 18.7271 27.4864C18.5323 27.2899 18.4217 27.0243 18.4195 26.7466C18.4172 26.469 18.5233 26.2015 18.715 26.0019L26.7353 17.9258H4.03452C3.75562 17.9258 3.48813 17.8142 3.29091 17.6156C3.0937 17.417 2.98291 17.1477 2.98291 16.8668C2.98291 16.586 3.0937 16.3166 3.29091 16.118C3.48813 15.9194 3.75562 15.8079 4.03452 15.8079H26.734L18.7136 7.73167C18.5163 7.53302 18.4055 7.26356 18.4055 6.98262C18.4055 6.70168 18.5163 6.43231 18.7136 6.23366C18.9109 6.03501 19.1785 5.92334 19.4575 5.92334C19.7365 5.92334 20.0041 6.03501 20.2014 6.23366L30.0164 16.1171C30.2139 16.3159 30.3247 16.5856 30.3247 16.8668C30.3247 17.148 30.2139 17.4177 30.0164 17.6166Z" fill="white"/>
</g>
</svg>
