<svg width="26" height="26" viewBox="0 0 26 26" fill="none" xmlns="http://www.w3.org/2000/svg">
<g id="Default/Arrow_Right">
<path id="arrow-right-Regular_1_" d="M23.0469 13.3311L15.4822 20.9486C15.3292 21.0972 15.1244 21.1793 14.9119 21.1773C14.6994 21.1754 14.4962 21.0895 14.346 20.9381C14.1958 20.7867 14.1106 20.5819 14.1088 20.368C14.1071 20.154 14.1889 19.9478 14.3366 19.794L20.5181 13.5695H3.02193C2.80697 13.5695 2.60081 13.4835 2.44881 13.3304C2.29681 13.1774 2.21143 12.9698 2.21143 12.7533C2.21143 12.5368 2.29681 12.3292 2.44881 12.1762C2.60081 12.0231 2.80697 11.9371 3.02193 11.9371H20.517L14.3355 5.71258C14.1835 5.55947 14.0981 5.35179 14.0981 5.13527C14.0981 4.91874 14.1835 4.71113 14.3355 4.55802C14.4876 4.40491 14.6938 4.31885 14.9089 4.31885C15.1239 4.31885 15.3301 4.40491 15.4822 4.55802L23.0469 12.1755C23.1991 12.3287 23.2846 12.5366 23.2846 12.7533C23.2846 12.97 23.1991 13.1779 23.0469 13.3311Z" fill="white"/>
</g>
</svg>
