<svg width="32" height="32" viewBox="0 0 32 32" fill="none" xmlns="http://www.w3.org/2000/svg">
<g id="Default/Calendar">
<path id="Calendar" d="M23.0286 3.77843H22.6786V3.42843C22.6786 3.14995 22.568 2.88295 22.3711 2.68604C22.1742 2.48912 21.9071 2.37842 21.6286 2.37842C21.3501 2.37842 21.0831 2.48912 20.8861 2.68604C20.6892 2.88295 20.5786 3.14995 20.5786 3.42843V3.77843H11.4785V3.42843C11.4785 3.14995 11.3679 2.88295 11.171 2.68604C10.9741 2.48912 10.707 2.37842 10.4285 2.37842C10.15 2.37842 9.88294 2.48912 9.68603 2.68604C9.48911 2.88295 9.37849 3.14995 9.37849 3.42843V3.77843H9.02849C7.26546 3.78066 5.57529 4.48193 4.32865 5.72857C3.082 6.97522 2.38064 8.66548 2.37842 10.4285V23.0286C2.38064 24.7917 3.082 26.4819 4.32865 27.7286C5.57529 28.9752 7.26546 29.6765 9.02849 29.6787H23.0286C24.7917 29.6765 26.4818 28.9752 27.7285 27.7286C28.9751 26.4819 29.6765 24.7917 29.6787 23.0286V10.4285C29.6765 8.66548 28.9751 6.97522 27.7285 5.72857C26.4818 4.48193 24.7917 3.78066 23.0286 3.77843ZM9.02849 5.87845H9.37849V7.62847C9.37849 7.90695 9.48911 8.17395 9.68603 8.37086C9.88294 8.56778 10.15 8.67848 10.4285 8.67848C10.707 8.67848 10.9741 8.56778 11.171 8.37086C11.3679 8.17395 11.4785 7.90695 11.4785 7.62847V5.87845H20.5786V7.62847C20.5786 7.90695 20.6892 8.17395 20.8861 8.37086C21.0831 8.56778 21.3501 8.67848 21.6286 8.67848C21.9071 8.67848 22.1742 8.56778 22.3711 8.37086C22.568 8.17395 22.6786 7.90695 22.6786 7.62847V5.87845H23.0286C24.2349 5.87994 25.3914 6.35987 26.2444 7.21284C27.0974 8.06582 27.5772 9.22221 27.5787 10.4285V10.7785H4.47844V10.4285C4.47992 9.22221 4.95976 8.06582 5.81274 7.21284C6.66572 6.35987 7.82219 5.87994 9.02849 5.87845ZM23.0286 27.5787H9.02849C7.82219 27.5772 6.66572 27.0973 5.81274 26.2443C4.95976 25.3913 4.47992 24.2349 4.47844 23.0286V12.8785H27.5787V23.0286C27.5772 24.2349 27.0974 25.3913 26.2444 26.2443C25.3914 27.0973 24.2349 27.5772 23.0286 27.5787ZM23.0286 17.4286C23.0286 17.7055 22.9465 17.9761 22.7927 18.2063C22.6389 18.4366 22.4202 18.616 22.1644 18.7219C21.9086 18.8279 21.6271 18.8558 21.3555 18.8018C21.0839 18.7477 20.8345 18.6144 20.6387 18.4186C20.4429 18.2228 20.3095 17.9733 20.2555 17.7017C20.2015 17.4301 20.2292 17.1486 20.3352 16.8928C20.4411 16.637 20.6206 16.4184 20.8508 16.2646C21.081 16.1107 21.3517 16.0286 21.6286 16.0286C21.9999 16.0286 22.356 16.176 22.6186 16.4385C22.8811 16.7011 23.0286 17.0573 23.0286 17.4286ZM17.4286 17.4286C17.4286 17.7055 17.3465 17.9761 17.1926 18.2063C17.0388 18.4366 16.8202 18.616 16.5643 18.7219C16.3085 18.8279 16.027 18.8558 15.7554 18.8018C15.4838 18.7477 15.2344 18.6144 15.0386 18.4186C14.8428 18.2228 14.7095 17.9733 14.6555 17.7017C14.6014 17.4301 14.6291 17.1486 14.7351 16.8928C14.8411 16.637 15.0205 16.4184 15.2508 16.2646C15.481 16.1107 15.7517 16.0286 16.0286 16.0286C16.3999 16.0286 16.7559 16.176 17.0185 16.4385C17.2811 16.7011 17.4286 17.0573 17.4286 17.4286ZM11.8285 17.4286C11.8285 17.7055 11.7464 17.9761 11.5926 18.2063C11.4388 18.4366 11.2201 18.616 10.9643 18.7219C10.7085 18.8279 10.4269 18.8558 10.1554 18.8018C9.88378 18.7477 9.63436 18.6144 9.43856 18.4186C9.24277 18.2228 9.10942 17.9733 9.0554 17.7017C9.00138 17.4301 9.02908 17.1486 9.13504 16.8928C9.24101 16.637 9.42046 16.4184 9.65069 16.2646C9.88092 16.1107 10.1516 16.0286 10.4285 16.0286C10.7998 16.0286 11.1559 16.176 11.4184 16.4385C11.681 16.7011 11.8285 17.0573 11.8285 17.4286ZM23.0286 23.0286C23.0286 23.3055 22.9465 23.5762 22.7927 23.8064C22.6389 24.0366 22.4202 24.216 22.1644 24.322C21.9086 24.428 21.6271 24.4558 21.3555 24.4018C21.0839 24.3478 20.8345 24.2145 20.6387 24.0187C20.4429 23.8229 20.3095 23.5733 20.2555 23.3017C20.2015 23.0302 20.2292 22.7487 20.3352 22.4929C20.4411 22.237 20.6206 22.0185 20.8508 21.8646C21.081 21.7108 21.3517 21.6286 21.6286 21.6286C21.9999 21.6286 22.356 21.7761 22.6186 22.0386C22.8811 22.3012 23.0286 22.6573 23.0286 23.0286ZM17.4286 23.0286C17.4286 23.3055 17.3465 23.5762 17.1926 23.8064C17.0388 24.0366 16.8202 24.216 16.5643 24.322C16.3085 24.428 16.027 24.4558 15.7554 24.4018C15.4838 24.3478 15.2344 24.2145 15.0386 24.0187C14.8428 23.8229 14.7095 23.5733 14.6555 23.3017C14.6014 23.0302 14.6291 22.7487 14.7351 22.4929C14.8411 22.237 15.0205 22.0185 15.2508 21.8646C15.481 21.7108 15.7517 21.6286 16.0286 21.6286C16.3999 21.6286 16.7559 21.7761 17.0185 22.0386C17.2811 22.3012 17.4286 22.6573 17.4286 23.0286ZM11.8285 23.0286C11.8285 23.3055 11.7464 23.5762 11.5926 23.8064C11.4388 24.0366 11.2201 24.216 10.9643 24.322C10.7085 24.428 10.4269 24.4558 10.1554 24.4018C9.88378 24.3478 9.63436 24.2145 9.43856 24.0187C9.24277 23.8229 9.10942 23.5733 9.0554 23.3017C9.00138 23.0302 9.02908 22.7487 9.13504 22.4929C9.24101 22.237 9.42046 22.0185 9.65069 21.8646C9.88092 21.7108 10.1516 21.6286 10.4285 21.6286C10.7998 21.6286 11.1559 21.7761 11.4184 22.0386C11.681 22.3012 11.8285 22.6573 11.8285 23.0286Z" fill="white"/>
</g>
</svg>
