<svg width="32" height="32" viewBox="0 0 32 32" fill="none" xmlns="http://www.w3.org/2000/svg">
<g id="Default/Document">
<path id="File" d="M26.2258 9.27618L20.0062 3.09643C19.778 2.86807 19.5064 2.68702 19.2072 2.56373C18.908 2.44044 18.5872 2.37747 18.2633 2.3783H11.8014C10.027 2.38053 8.3259 3.0818 7.07121 4.32845C5.81652 5.57509 5.11064 7.26535 5.1084 9.02837V23.0285C5.11064 24.7915 5.81652 26.4818 7.07121 27.7284C8.3259 28.9751 10.027 29.6764 11.8014 29.6786H20.2556C22.03 29.6764 23.7311 28.9751 24.9858 27.7284C26.2405 26.4818 26.9464 24.7915 26.9486 23.0285V11.0079C26.9495 10.6861 26.8861 10.3673 26.762 10.07C26.638 9.77272 26.4557 9.50291 26.2258 9.27618ZM19.9034 5.96242L23.34 9.37701H22.3692C21.7155 9.37627 21.0887 9.11785 20.6264 8.65854C20.1642 8.19924 19.9041 7.57654 19.9034 6.92698V5.96242ZM20.2556 27.5786H11.8014C10.5873 27.5771 9.42336 27.0972 8.56488 26.2442C7.7064 25.3912 7.22346 24.2348 7.22197 23.0285V9.02837C7.22346 7.82208 7.7064 6.66569 8.56488 5.81271C9.42336 4.95974 10.5873 4.47981 11.8014 4.47833H17.7898V6.92835C17.7913 8.13464 18.2742 9.29103 19.1327 10.144C19.9912 10.997 21.1551 11.4769 22.3692 11.4784H24.835V23.0285C24.8336 24.2348 24.3506 25.3912 23.4921 26.2442C22.6337 27.0972 21.4697 27.5771 20.2556 27.5786Z" fill="white"/>
</g>
</svg>
