<svg width="19" height="19" viewBox="0 0 19 19" fill="none" xmlns="http://www.w3.org/2000/svg">
<path id="store-Regular_1_" d="M18.4103 6.7345C18.4104 6.65988 18.3982 6.58573 18.3743 6.51503L17.3712 3.50477C17.0813 2.63234 16.5239 1.87346 15.7781 1.33589C15.0324 0.798323 14.1361 0.50947 13.2168 0.510256H5.62525C4.70592 0.50947 3.80971 0.798323 3.06393 1.33589C2.31815 1.87346 1.76075 2.63234 1.47084 3.50477L0.467721 6.51503C0.443849 6.58573 0.431702 6.65988 0.431763 6.7345C0.434836 7.6003 0.764029 8.43319 1.35374 9.06713V15.0323C1.35472 15.9489 1.71932 16.8278 2.3675 17.476C3.01568 18.1242 3.89449 18.4887 4.81115 18.4897H8.29344V15.0323C8.29344 14.7266 8.41489 14.4335 8.63102 14.2173C8.84715 14.0012 9.14025 13.8798 9.44591 13.8798C9.75156 13.8798 10.0447 14.0012 10.2609 14.2173C10.477 14.4335 10.5984 14.7266 10.5984 15.0323V18.4897H14.0309C14.9476 18.4887 15.8264 18.1242 16.4746 17.476C17.1228 16.8278 17.4874 15.9489 17.4883 15.0323V9.06803C18.0782 8.43381 18.4074 7.60061 18.4103 6.7345ZM2.78279 3.94178C2.98121 3.34493 3.36266 2.82584 3.87291 2.45809C4.38316 2.09034 4.99629 1.89269 5.62525 1.89322H13.2168C13.8458 1.89269 14.4589 2.09034 14.9692 2.45809C15.4794 2.82584 15.8609 3.34493 16.0593 3.94178L17.0246 6.83781C17.0042 7.36985 16.7776 7.87304 16.3926 8.24081C16.0076 8.60859 15.4945 8.81203 14.9621 8.80804C14.5118 8.81176 14.0704 8.68254 13.6932 8.43653C13.316 8.19052 13.0197 7.83868 12.8416 7.42508C12.794 7.29005 12.7056 7.17318 12.5886 7.09059C12.4717 7.008 12.332 6.96379 12.1888 6.96409C12.045 6.96444 11.9049 7.00961 11.788 7.09341C11.6712 7.1772 11.5834 7.29541 11.537 7.43149C11.3575 7.84239 11.0621 8.19201 10.6869 8.43754C10.3117 8.68307 9.87313 8.8139 9.42475 8.8139C8.97637 8.8139 8.53772 8.68307 8.16255 8.43754C7.78737 8.19201 7.49195 7.84239 7.31249 7.43149C7.26603 7.29541 7.17825 7.1772 7.0614 7.09341C6.94454 7.00961 6.80441 6.96444 6.66062 6.96409C6.51748 6.96392 6.37783 7.00814 6.26091 7.09071C6.14399 7.17327 6.05557 7.29013 6.00785 7.42508C5.82969 7.83868 5.53348 8.19052 5.15627 8.43653C4.77907 8.68254 4.33764 8.81176 3.88732 8.80804C3.35491 8.81203 2.8419 8.60859 2.45692 8.24081C2.07193 7.87304 1.84521 7.36985 1.82486 6.83781L2.78279 3.94178ZM14.0309 17.1067H11.9813V15.0323C11.9813 14.3598 11.7143 13.7149 11.2388 13.2394C10.7633 12.7639 10.1183 12.4969 9.44591 12.4969C8.77347 12.4969 8.12859 12.7639 7.65311 13.2394C7.17762 13.7149 6.91047 14.3598 6.91047 15.0323V17.1067H4.81115C4.26112 17.1062 3.73378 16.8876 3.34485 16.4986C2.95592 16.1097 2.73719 15.5823 2.7367 15.0323V9.98077C3.10278 10.1165 3.48954 10.1879 3.87995 10.1919C4.23125 9.80649 4.65913 9.4986 5.13618 9.28794C5.61324 9.07728 6.12899 8.96853 6.65049 8.96853C7.17199 8.96853 7.68774 9.07728 8.1648 9.28794C8.64185 9.4986 9.06973 9.80649 9.42103 10.1919C9.77234 9.80649 10.2002 9.4986 10.6773 9.28794C11.1543 9.07728 11.6701 8.96853 12.1916 8.96853C12.7131 8.96853 13.2288 9.07728 13.7059 9.28794C14.1829 9.4986 14.6108 9.80649 14.9621 10.1919C15.3525 10.1879 15.7393 10.1165 16.1054 9.98077V15.0323C16.1046 15.5822 15.8858 16.1094 15.4969 16.4983C15.1081 16.8872 14.5809 17.106 14.0309 17.1067Z" fill="#212121"/>
</svg>
