<svg width="19" height="20" viewBox="0 0 19 20" fill="none" xmlns="http://www.w3.org/2000/svg">
<g id="Default/Chart" clip-path="url(#clip0_3873_4656)">
<path id="Chart/Pie" d="M17.4865 7.7693C17.1534 6.10616 16.3357 4.5788 15.1362 3.3795C13.9368 2.18021 12.4092 1.36257 10.746 1.0297C10.4589 0.972236 10.1627 0.979195 9.8786 1.05004C9.59451 1.12089 9.32966 1.25395 9.10317 1.4395C8.87668 1.62505 8.69418 1.85854 8.56881 2.12314C8.44345 2.38774 8.37835 2.67681 8.37821 2.9696V7.72637C8.3789 8.36577 8.63322 8.97873 9.08534 9.43085C9.53747 9.88298 10.1505 10.1373 10.7899 10.138H15.5466C15.8393 10.1377 16.1284 10.0725 16.3929 9.94706C16.6574 9.82165 16.8909 9.63921 17.0764 9.41276C17.2619 9.18631 17.3949 8.92151 17.4658 8.63749C17.5367 8.35347 17.5438 8.05723 17.4865 7.77015V7.7693ZM16.0588 8.57957C15.997 8.6558 15.9189 8.71724 15.8303 8.75942C15.7417 8.8016 15.6447 8.82353 15.5466 8.82344H10.7899C10.4993 8.82298 10.2208 8.70733 10.0153 8.50185C9.80983 8.29637 9.69413 8.01782 9.69367 7.72722V2.97046C9.69413 2.79476 9.76416 2.62645 9.8884 2.50221C10.0126 2.37798 10.181 2.30795 10.3567 2.30748C10.4003 2.30742 10.4438 2.31184 10.4865 2.32065C11.8955 2.60242 13.1895 3.2949 14.2057 4.31086C15.2218 5.32682 15.9145 6.6208 16.1965 8.02975C16.2155 8.12547 16.213 8.22426 16.1892 8.3189C16.1654 8.41354 16.1208 8.50169 16.0588 8.577V8.57957ZM16.2877 12.3646C15.8769 13.7016 15.1273 14.9097 14.1118 15.8714C13.0962 16.8332 11.8492 17.5158 10.4918 17.8533C9.1345 18.1908 7.71293 18.1715 6.36525 17.7973C5.01756 17.4231 3.78956 16.7067 2.80051 15.7177C1.81146 14.7288 1.09496 13.5009 0.720644 12.1532C0.346326 10.8055 0.326884 9.38403 0.664227 8.02665C1.00157 6.66927 1.68422 5.4222 2.64587 4.40657C3.60753 3.39093 4.81553 2.64119 6.15248 2.2303C6.23511 2.20508 6.32192 2.19639 6.40791 2.20471C6.4939 2.21303 6.57738 2.2382 6.65365 2.27879C6.72991 2.31939 6.79747 2.37461 6.85239 2.4413C6.90731 2.50799 6.94857 2.58487 6.97379 2.6675C6.99901 2.75013 7.00769 2.83693 6.99937 2.92293C6.99105 3.00892 6.96589 3.09246 6.92529 3.16872C6.8847 3.24498 6.82948 3.31248 6.76279 3.36741C6.6961 3.42233 6.61922 3.46358 6.53659 3.48881C5.4167 3.83321 4.40491 4.46135 3.59944 5.31223C2.79398 6.1631 2.22219 7.20773 1.93965 8.34481C1.65711 9.48188 1.67343 10.6727 1.98697 11.8016C2.3005 12.9306 2.90059 13.9592 3.72903 14.7878C4.55747 15.6163 5.5861 16.2165 6.71499 16.5301C7.84388 16.8438 9.03466 16.8602 10.1718 16.5778C11.3089 16.2954 12.3537 15.7237 13.2046 14.9184C14.0556 14.113 14.6838 13.1012 15.0283 11.9814C15.0838 11.8201 15.1997 11.6867 15.3517 11.6092C15.5036 11.5316 15.6796 11.516 15.8428 11.5657C16.006 11.6153 16.1435 11.7264 16.2265 11.8754C16.3095 12.0244 16.3314 12.1998 16.2877 12.3646Z" fill="white"/>
</g>
<defs>
<clipPath id="clip0_3873_4656">
<rect width="18.5526" height="18.5526" fill="white" transform="translate(0 0.566895)"/>
</clipPath>
</defs>
</svg>
