<svg width="22" height="22" viewBox="0 0 22 22" fill="none" xmlns="http://www.w3.org/2000/svg">
<path id="chevron-circle-right-Filled_1_" d="M10.97 0.709961C8.94072 0.709961 6.95708 1.31174 5.26983 2.43913C3.58258 3.56651 2.2675 5.16887 1.49095 7.04364C0.714393 8.91842 0.511229 10.9813 0.907113 12.9715C1.303 14.9618 2.28013 16.7901 3.71502 18.2249C5.14991 19.6598 6.97811 20.6369 8.96836 21.0328C10.9586 21.4287 13.0215 21.2256 14.8963 20.449C16.7711 19.6725 18.3735 18.3573 19.5009 16.6701C20.6282 14.9828 21.23 12.9992 21.23 10.97C21.2274 8.24965 20.1456 5.64151 18.2221 3.71794C16.2985 1.79437 13.6903 0.712534 10.97 0.709961ZM13.8968 11.7367L10.6568 14.9768C10.4521 15.1775 10.1767 15.29 9.88996 15.29C9.6032 15.29 9.32786 15.1775 9.12313 14.9768C8.92079 14.7728 8.80725 14.4973 8.80725 14.21C8.80725 13.9227 8.92079 13.6472 9.12313 13.4432L11.6072 10.97L9.12313 8.49674C8.91976 8.29337 8.80554 8.01759 8.80554 7.72998C8.80554 7.44237 8.91976 7.16659 9.12313 6.96322C9.3265 6.75985 9.60235 6.6455 9.88996 6.6455C10.1776 6.6455 10.4534 6.75985 10.6568 6.96322L13.8968 10.2032C14.0991 10.4071 14.2127 10.6827 14.2127 10.97C14.2127 11.2573 14.0991 11.5328 13.8968 11.7367V11.7367Z" fill="#A10B30"/>
</svg>
