<svg width="20" height="21" viewBox="0 0 20 21" fill="none" xmlns="http://www.w3.org/2000/svg">
<g id="Default/Clock">
<path id="Clock" d="M9.97506 2.18433C8.28403 2.18433 6.63097 2.68579 5.22493 3.62528C3.81888 4.56477 2.72302 5.90005 2.07589 7.46236C1.42876 9.02467 1.25943 10.7438 1.58934 12.4023C1.91924 14.0609 2.73355 15.5844 3.92929 16.7801C5.12503 17.9758 6.64849 18.7901 8.30703 19.12C9.96557 19.4499 11.6847 19.2806 13.247 18.6335C14.8093 17.9864 16.1447 16.8906 17.0841 15.4845C18.0236 14.0785 18.5251 12.4254 18.5251 10.7343C18.5225 8.46752 17.6209 6.29424 16.018 4.69135C14.4151 3.08847 12.2419 2.18688 9.97506 2.18433ZM9.97506 17.969C8.54418 17.969 7.14543 17.5447 5.95571 16.7497C4.76598 15.9548 3.83871 14.8248 3.29113 13.5029C2.74356 12.1809 2.60028 10.7263 2.87943 9.32293C3.15858 7.91955 3.84764 6.63048 4.85942 5.6187C5.8712 4.60692 7.16027 3.91792 8.56365 3.63877C9.96703 3.35962 11.4217 3.50289 12.7436 4.05047C14.0656 4.59804 15.1955 5.52523 15.9904 6.71496C16.7854 7.90469 17.2097 9.30346 17.2097 10.7343C17.2076 12.6524 16.4447 14.4914 15.0884 15.8477C13.7321 17.204 11.8932 17.9669 9.97506 17.969ZM14.1404 10.7343C14.1404 10.9088 14.0712 11.076 13.9478 11.1993C13.8245 11.3227 13.6572 11.392 13.4828 11.392H9.97506C9.80063 11.392 9.63334 11.3227 9.50999 11.1993C9.38665 11.076 9.31736 10.9088 9.31736 10.7343V6.34972C9.31736 6.17529 9.38665 6.00805 9.50999 5.88471C9.63334 5.76137 9.80063 5.69202 9.97506 5.69202C10.1495 5.69202 10.3168 5.76137 10.4401 5.88471C10.5635 6.00805 10.6328 6.17529 10.6328 6.34972V10.0766H13.4828C13.6572 10.0766 13.8245 10.146 13.9478 10.2693C14.0712 10.3927 14.1404 10.5599 14.1404 10.7343Z" fill="#212121"/>
</g>
</svg>
