<svg width="23" height="23" viewBox="0 0 23 23" fill="none" xmlns="http://www.w3.org/2000/svg">
<g id="Default/Settings">
<path id="settings-Regular_1_" d="M11.3957 15.024C10.6924 15.024 10.0049 14.8155 9.42018 14.4248C8.83542 14.0341 8.37965 13.4787 8.11052 12.829C7.84138 12.1792 7.77098 11.4643 7.90819 10.7745C8.04539 10.0847 8.38401 9.45116 8.8813 8.95386C9.37859 8.45657 10.0122 8.11784 10.702 7.98063C11.3918 7.84343 12.1067 7.91383 12.7564 8.18296C13.4062 8.4521 13.9615 8.90792 14.3522 9.49268C14.743 10.0774 14.9515 10.7649 14.9515 11.4682C14.9505 12.411 14.5755 13.3148 13.9089 13.9815C13.2423 14.6481 12.3384 15.023 11.3957 15.024V15.024ZM11.3957 9.33468C10.9737 9.33468 10.5612 9.45977 10.2103 9.6942C9.85949 9.92863 9.58605 10.2618 9.42457 10.6517C9.26309 11.0415 9.22083 11.4706 9.30315 11.8844C9.38547 12.2983 9.58868 12.6784 9.88705 12.9768C10.1854 13.2751 10.5656 13.4784 10.9794 13.5607C11.3933 13.643 11.8223 13.6008 12.2121 13.4393C12.602 13.2778 12.9352 13.0043 13.1696 12.6535C13.404 12.3026 13.5292 11.8902 13.5292 11.4682C13.5287 10.9025 13.3037 10.3601 12.9037 9.96008C12.5037 9.56008 11.9614 9.33518 11.3957 9.33468ZM11.8698 20.7134H10.9216C10.3559 20.7129 9.81352 20.488 9.41352 20.088C9.01352 19.688 8.78856 19.1456 8.78806 18.5799C8.78926 18.5115 8.77006 18.4444 8.73291 18.3869C8.69575 18.3295 8.64235 18.2845 8.57948 18.2575H8.57184C8.51462 18.234 8.45175 18.2277 8.39104 18.2397C8.33033 18.2517 8.27448 18.2812 8.23049 18.3248C7.82757 18.7238 7.28448 18.9493 6.71741 18.9531C6.15033 18.9568 5.60428 18.7384 5.19616 18.3447L4.5277 17.681C4.32918 17.4825 4.17176 17.2467 4.06452 16.9873C3.95729 16.7278 3.90232 16.4498 3.90276 16.169C3.9032 15.8883 3.95908 15.6104 4.06713 15.3513C4.17518 15.0921 4.3333 14.8569 4.53244 14.659C4.5793 14.6105 4.6111 14.5496 4.62406 14.4835C4.63702 14.4174 4.63054 14.3489 4.60543 14.2864C4.58237 14.2272 4.54217 14.1762 4.48996 14.1401C4.43776 14.1039 4.37596 14.0842 4.31246 14.0835C4.03049 14.0857 3.75084 14.0321 3.48959 13.926C3.22835 13.8199 2.99064 13.6632 2.79011 13.465C2.58958 13.2668 2.43015 13.0309 2.32104 12.7708C2.21192 12.5108 2.15529 12.2319 2.1543 11.9499V11.0017C2.1548 10.436 2.37969 9.89361 2.7797 9.4936C3.1797 9.0936 3.72212 8.86871 4.28781 8.86821C4.35611 8.86959 4.42322 8.85042 4.48053 8.81322C4.53784 8.77603 4.58269 8.72245 4.60925 8.65951V8.65198C4.63257 8.59472 4.63863 8.53184 4.62667 8.47118C4.6147 8.41052 4.5852 8.35475 4.54188 8.31064C4.33988 8.11354 4.17903 7.87828 4.06858 7.61857C3.95812 7.35885 3.90027 7.07977 3.89842 6.79755C3.89657 6.51533 3.95078 6.23559 4.05781 5.97445C4.16484 5.71331 4.32258 5.47598 4.52197 5.27624L5.19332 4.60489C5.5993 4.21601 6.13977 3.99894 6.70195 3.99894C7.26414 3.99894 7.80461 4.21601 8.21058 4.60489C8.25853 4.65466 8.32032 4.68891 8.38791 4.70328C8.45551 4.71764 8.52585 4.71154 8.5899 4.68557C8.64871 4.66249 8.69928 4.62233 8.73511 4.57028C8.77093 4.51824 8.79035 4.45659 8.7909 4.39341C8.7884 4.11129 8.84168 3.83155 8.94768 3.57008C9.05369 3.30862 9.21034 3.07064 9.4086 2.86991C9.60686 2.66918 9.84285 2.50966 10.103 2.40043C10.3631 2.2912 10.6423 2.23439 10.9244 2.2334H11.8726C12.4383 2.2339 12.9807 2.45891 13.3807 2.85891C13.7807 3.25891 14.0056 3.80122 14.0061 4.36691C14.0028 4.43364 14.0201 4.49976 14.0557 4.55628C14.0914 4.6128 14.1436 4.65697 14.2053 4.68267V4.68267C14.2653 4.7081 14.3314 4.71588 14.3957 4.70513C14.46 4.69438 14.5199 4.66559 14.5685 4.62202C14.7662 4.41985 15.0021 4.259 15.2626 4.14895C15.5231 4.0389 15.8028 3.98182 16.0856 3.981C16.3659 3.98021 16.6435 4.03509 16.9025 4.14235C17.1615 4.24961 17.3966 4.40707 17.5942 4.60582L18.2627 5.26964C18.4609 5.46776 18.618 5.70298 18.7252 5.96183C18.8324 6.22068 18.8876 6.49804 18.8876 6.77822C18.8876 7.0584 18.8324 7.33587 18.7252 7.59472C18.618 7.85357 18.4609 8.08879 18.2627 8.28691C18.2128 8.33164 18.1777 8.39063 18.1623 8.4559C18.1468 8.52118 18.1518 8.58961 18.1765 8.65198L18.1821 8.66518C18.2052 8.72364 18.2453 8.77392 18.2972 8.8094C18.3491 8.84489 18.4104 8.86405 18.4732 8.86439C18.7554 8.86189 19.0352 8.91511 19.2967 9.02111C19.5582 9.12712 19.7961 9.28377 19.9968 9.48203C20.1975 9.68029 20.3571 9.91628 20.4663 10.1764C20.5756 10.4366 20.6323 10.7158 20.6333 10.9979V11.9461C20.6328 12.5118 20.4079 13.0541 20.0079 13.4541C19.6079 13.8541 19.0655 14.0791 18.4998 14.0796C18.4331 14.0762 18.3669 14.0935 18.3104 14.1292C18.2539 14.1648 18.2097 14.217 18.184 14.2787V14.2787C18.1587 14.3388 18.151 14.4048 18.1618 14.4691C18.1725 14.5334 18.2013 14.5934 18.2447 14.6419C18.4465 14.8393 18.6071 15.0746 18.7172 15.3345C18.8273 15.5943 18.8848 15.8735 18.8863 16.1557C18.8878 16.4379 18.8333 16.7176 18.7259 16.9786C18.6186 17.2396 18.4605 17.4767 18.2608 17.6762L17.5923 18.3399C17.1863 18.7288 16.6459 18.946 16.0837 18.946C15.5215 18.946 14.9811 18.7288 14.5751 18.3399C14.5303 18.2901 14.4713 18.2551 14.4061 18.2397C14.3408 18.2243 14.2724 18.2292 14.21 18.2537C14.1498 18.2774 14.0977 18.3181 14.06 18.3707C14.0223 18.4234 14.0006 18.4858 13.9976 18.5505C14.0006 18.8324 13.9479 19.1121 13.8425 19.3736C13.737 19.6351 13.581 19.8732 13.3832 20.0742C13.1855 20.2752 12.95 20.4351 12.6903 20.5447C12.4306 20.6544 12.1517 20.7118 11.8698 20.7134V20.7134ZM9.20621 16.985C9.50291 17.1271 9.75411 17.3492 9.9315 17.6262C10.1089 17.9033 10.2055 18.2244 10.2104 18.5534C10.2078 18.6488 10.2241 18.7436 10.2586 18.8326C10.2931 18.9215 10.345 19.0028 10.4112 19.0715C10.4774 19.1402 10.5566 19.1949 10.6442 19.2326C10.7319 19.2703 10.8262 19.2902 10.9216 19.2911H11.8698C12.0584 19.2911 12.2393 19.2161 12.3727 19.0827C12.506 18.9493 12.581 18.7685 12.581 18.5799C12.5809 18.2289 12.6849 17.8859 12.8798 17.594C13.0748 17.3022 13.352 17.0747 13.6762 16.9404C13.9934 16.809 14.3426 16.7749 14.6792 16.8425C15.0159 16.91 15.3249 17.0761 15.5669 17.3197C15.6322 17.3897 15.7109 17.4458 15.7983 17.4848C15.8857 17.5238 15.98 17.5448 16.0757 17.5467C16.1714 17.5486 16.2665 17.5311 16.3553 17.4955C16.4441 17.46 16.525 17.407 16.5929 17.3396L17.2614 16.6758C17.3276 16.6097 17.3802 16.5311 17.4161 16.4446C17.452 16.3582 17.4704 16.2654 17.4704 16.1718C17.4704 16.0782 17.452 15.9856 17.4161 15.8991C17.3802 15.8126 17.3276 15.734 17.2614 15.6678C17.0179 15.4226 16.8511 15.1118 16.7814 14.7733C16.7117 14.4349 16.7421 14.0834 16.8688 13.7619L16.8746 13.7487C16.8746 13.744 16.8745 13.7382 16.8812 13.7325C17.0114 13.4146 17.2336 13.1428 17.5193 12.9519C17.8049 12.761 18.1411 12.6598 18.4846 12.6611C18.5799 12.6635 18.6746 12.6468 18.7633 12.6123C18.8521 12.5777 18.933 12.5258 19.0015 12.4596C19.07 12.3934 19.1247 12.3142 19.1622 12.2267C19.1998 12.1392 19.2196 12.0452 19.2205 11.9499V11.0017C19.2205 10.8131 19.1455 10.6322 19.0122 10.4988C18.8788 10.3654 18.6979 10.2905 18.5093 10.2905C18.1617 10.2949 17.8208 10.1951 17.5303 10.0042C17.2399 9.81324 17.0132 9.53983 16.8793 9.21905V9.21905C16.7438 8.90016 16.7065 8.54806 16.7722 8.20785C16.8379 7.86764 17.0036 7.55475 17.2481 7.30928C17.3196 7.24218 17.3767 7.16122 17.416 7.07141C17.4553 6.98161 17.4759 6.8848 17.4767 6.78678C17.477 6.69322 17.4587 6.60051 17.4229 6.51408C17.3871 6.42764 17.3344 6.3492 17.268 6.28327L16.5995 5.61956C16.5335 5.55326 16.4551 5.50072 16.3687 5.46492C16.2822 5.42911 16.1896 5.41078 16.096 5.41098C16.0024 5.41074 15.9096 5.42905 15.8232 5.46503C15.7367 5.50101 15.6584 5.55389 15.5926 5.62048C15.3472 5.86377 15.0363 6.03045 14.6979 6.10015C14.3595 6.16986 14.0081 6.13952 13.6866 6.01299L13.6733 6.00732L13.6572 6.00072C13.3393 5.87047 13.0675 5.64825 12.8766 5.36259C12.6857 5.07693 12.5844 4.7408 12.5857 4.39723C12.5881 4.30202 12.5715 4.20737 12.5369 4.11862C12.5023 4.02988 12.4504 3.94889 12.3843 3.88041C12.3181 3.81193 12.2389 3.75722 12.1514 3.71963C12.0639 3.68205 11.9698 3.66226 11.8745 3.66141H10.9263C10.7377 3.66141 10.5568 3.73639 10.4234 3.86976C10.2901 4.00313 10.2151 4.18397 10.2151 4.37258C10.2195 4.72225 10.1185 5.06515 9.92543 5.35669C9.73231 5.64823 9.45592 5.87493 9.13225 6.00732C8.81336 6.13781 8.46326 6.17222 8.1251 6.10617C7.78694 6.04012 7.47554 5.87654 7.2292 5.63565C7.16369 5.56604 7.08489 5.51016 6.99752 5.4714C6.91015 5.43263 6.81592 5.41179 6.72036 5.40993C6.62479 5.40808 6.52986 5.42529 6.44105 5.46063C6.35224 5.49598 6.27134 5.54872 6.20318 5.61574L5.53183 6.28709C5.46575 6.35313 5.41336 6.43158 5.3776 6.5179C5.34183 6.60421 5.32337 6.69671 5.32337 6.79014C5.32337 6.88357 5.34183 6.97607 5.3776 7.06239C5.41336 7.1487 5.46575 7.22715 5.53183 7.29319C5.78095 7.53601 5.95181 7.84766 6.02244 8.18829C6.09307 8.52892 6.06026 8.88296 5.92822 9.20481C5.91507 9.23565 5.90019 9.2657 5.88366 9.29486C5.7416 9.59163 5.51954 9.84286 5.24246 10.0203C4.96537 10.1977 4.64427 10.2942 4.3153 10.299C4.21993 10.2963 4.12495 10.3128 4.03599 10.3473C3.94703 10.3817 3.86583 10.4336 3.79714 10.4998C3.72845 10.566 3.67366 10.6452 3.63596 10.7328C3.59825 10.8205 3.57841 10.9148 3.57756 11.0102V11.9584C3.57756 12.147 3.65249 12.328 3.78586 12.4613C3.91923 12.5947 4.10012 12.6696 4.28873 12.6696C4.63671 12.6651 4.978 12.7653 5.26844 12.957C5.55888 13.1487 5.78512 13.4232 5.9178 13.7449C5.91995 13.7487 5.92155 13.7528 5.92255 13.7572L5.92822 13.7705C6.05513 14.0894 6.08687 14.4384 6.01955 14.7749C5.95223 15.1115 5.78872 15.4213 5.54891 15.6669C5.47994 15.7323 5.42479 15.8109 5.38668 15.898C5.34858 15.985 5.32831 16.0788 5.32707 16.1738C5.32583 16.2688 5.34362 16.3631 5.37945 16.4511C5.41527 16.5391 5.46841 16.6192 5.53565 16.6863L6.20417 17.35C6.33966 17.4795 6.51978 17.5517 6.70716 17.5517C6.89454 17.5517 7.07472 17.4795 7.21021 17.35C7.4531 17.101 7.76482 16.9302 8.10543 16.8596C8.44603 16.789 8.79996 16.8218 9.12183 16.9537C9.14743 16.9537 9.17776 16.9679 9.20621 16.985Z" fill="#484848"/>
</g>
</svg>
