<svg width="14" height="14" viewBox="0 0 14 14" fill="none" xmlns="http://www.w3.org/2000/svg">
<g id="Default/Edit" clip-path="url(#clip0_3290_6063)">
<path id="pen-Filled_1_" d="M7.50184 3.84675L10.9355 7.28037L6.22619 11.9956C6.00733 12.2142 5.72625 12.3599 5.42141 12.4128L2.59585 12.8838C2.56231 12.8887 2.52841 12.8907 2.49452 12.8897C2.33544 12.888 2.18342 12.8237 2.07127 12.7109C2.0034 12.6431 1.95241 12.5602 1.92239 12.4691C1.89236 12.378 1.88415 12.2812 1.89841 12.1864L2.36932 9.36079C2.4223 9.056 2.56803 8.77491 2.78661 8.55598L7.50184 3.84675ZM12.5032 2.2789C12.2785 2.05224 12.011 1.87237 11.7164 1.74959C11.4217 1.62682 11.1056 1.5636 10.7864 1.5636C10.4672 1.5636 10.1512 1.62682 9.85649 1.74959C9.56183 1.87237 9.29439 2.05224 9.06962 2.2789L8.34835 3.00018L11.782 6.43379L12.5032 5.71252C12.7299 5.48774 12.9098 5.22027 13.0326 4.92561C13.1554 4.63095 13.2186 4.315 13.2186 3.99578C13.2186 3.67657 13.1554 3.36047 13.0326 3.06581C12.9098 2.77115 12.7299 2.50368 12.5032 2.2789Z" fill="#212121"/>
</g>
<defs>
<clipPath id="clip0_3290_6063">
<rect width="13.2141" height="13.2141" fill="white" transform="translate(0.571777 0.243286)"/>
</clipPath>
</defs>
</svg>
