<svg width="19" height="15" viewBox="0 0 19 15" fill="none" xmlns="http://www.w3.org/2000/svg">
<path id="Envelope" d="M14.0311 0.308105H4.81088C4.16393 0.308926 3.53187 0.453602 2.95693 0.724512C2.50003 0.939805 2.07921 1.23482 1.71566 1.60072C0.894638 2.42703 0.432738 3.54738 0.431274 4.71597V10.2838C0.432738 11.4524 0.894638 12.5727 1.71566 13.399C2.53668 14.2254 3.64979 14.6902 4.81088 14.6917H14.0311C15.1922 14.6902 16.3053 14.2254 17.1263 13.399C17.9474 12.5727 18.4093 11.4524 18.4107 10.2838V4.71597C18.4093 3.54738 17.9474 2.42703 17.1263 1.60072C16.3053 0.774402 15.1922 0.309579 14.0311 0.308105ZM4.81088 1.70006H14.0311C14.6239 1.70166 15.203 1.87997 15.6953 2.21242C16.1876 2.54486 16.571 3.0165 16.7972 3.56801L11.0806 7.40428C10.5891 7.73405 10.0117 7.91006 9.421 7.91006C8.83031 7.91006 8.25285 7.73405 7.76137 7.40428L2.04481 3.56801C2.27061 3.01621 2.65394 2.54425 3.1463 2.21174C3.63867 1.87923 4.21795 1.70117 4.81088 1.70006ZM14.0311 13.2997H4.81088C4.01644 13.2987 3.25481 12.9806 2.69306 12.4152C2.1313 11.8499 1.81528 11.0834 1.81431 10.2838V5.08718L6.99146 8.56152C7.71043 9.0456 8.55599 9.30395 9.421 9.30395C10.286 9.30395 11.1316 9.0456 11.8505 8.56152L17.0277 5.08718V10.2838C17.0267 11.0834 16.7107 11.8499 16.1489 12.4152C15.5872 12.9806 14.8256 13.2987 14.0311 13.2997Z" fill="#484848"/>
</svg>
