<svg width="21" height="21" viewBox="0 0 21 21" fill="none" xmlns="http://www.w3.org/2000/svg">
<g id="Style=Line, Size=20">
<path id="plus-square-Regular_1_" d="M12.675 1.92432H7.39779C5.82381 1.92618 4.31483 2.55227 3.20186 3.66524C2.08889 4.77821 1.4628 6.28719 1.46094 7.86117V13.1384C1.4628 14.7123 2.08889 16.2213 3.20186 17.3343C4.31483 18.4473 5.82381 19.0734 7.39779 19.0752H12.675C14.249 19.0734 15.7579 18.4473 16.8709 17.3343C17.9839 16.2213 18.61 14.7123 18.6118 13.1384V7.86117C18.61 6.28719 17.9839 4.77821 16.8709 3.66524C15.7579 2.55227 14.249 1.92618 12.675 1.92432ZM17.2925 13.1384C17.2911 14.3626 16.8042 15.5363 15.9386 16.4019C15.0729 17.2676 13.8992 17.7545 12.675 17.7559H7.39779C6.17357 17.7545 4.99987 17.2676 4.13422 16.4019C3.26856 15.5363 2.78163 14.3626 2.78024 13.1384V7.86117C2.78163 6.63694 3.26856 5.46325 4.13422 4.59759C4.99987 3.73194 6.17357 3.24501 7.39779 3.24362H12.675C13.8992 3.24501 15.0729 3.73194 15.9386 4.59759C16.8042 5.46325 17.2911 6.63694 17.2925 7.86117V13.1384ZM14.2142 10.4998C14.2142 10.6747 14.1447 10.8425 14.021 10.9662C13.8973 11.0899 13.7295 11.1594 13.5545 11.1594H10.696V14.0179C10.696 14.1928 10.6265 14.3606 10.5028 14.4843C10.3791 14.608 10.2113 14.6775 10.0364 14.6775C9.86144 14.6775 9.69365 14.608 9.56994 14.4843C9.44623 14.3606 9.37674 14.1928 9.37674 14.0179V11.1594H6.51825C6.3433 11.1594 6.17552 11.0899 6.05181 10.9662C5.9281 10.8425 5.8586 10.6747 5.8586 10.4998C5.8586 10.3248 5.9281 10.157 6.05181 10.0333C6.17552 9.90961 6.3433 9.84012 6.51825 9.84012H9.37674V6.98163C9.37674 6.80668 9.44623 6.63889 9.56994 6.51519C9.69365 6.39148 9.86144 6.32198 10.0364 6.32198C10.2113 6.32198 10.3791 6.39148 10.5028 6.51519C10.6265 6.63889 10.696 6.80668 10.696 6.98163V9.84012H13.5545C13.7295 9.84012 13.8973 9.90961 14.021 10.0333C14.1447 10.157 14.2142 10.3248 14.2142 10.4998Z" fill="#212121"/>
</g>
</svg>
