<svg width="14" height="14" viewBox="0 0 14 14" fill="none" xmlns="http://www.w3.org/2000/svg">
<g id="Default/Eye_Open" clip-path="url(#clip0_2522_2488)">
<path id="eye-Filled_1_" d="M13.0464 6.16086C12.2758 4.86491 10.5553 2.68481 7.65812 2.68481C4.7609 2.68481 3.0405 4.86491 2.27587 6.16086C2.08517 6.48165 1.98437 6.84919 1.98438 7.22374C1.98438 7.59829 2.08517 7.96567 2.27587 8.28646C3.0405 9.58847 4.76688 11.7686 7.65812 11.7686C10.5494 11.7686 12.2758 9.58847 13.0464 8.28646C13.2362 7.96635 13.3374 7.60022 13.3391 7.22669C13.3366 6.85137 13.2356 6.48348 13.0464 6.16086ZM7.65872 9.95123C7.12706 9.95123 6.60734 9.79145 6.16528 9.49201C5.72321 9.19257 5.37866 8.76697 5.1752 8.26902C4.97174 7.77107 4.9185 7.22306 5.02223 6.69444C5.12595 6.16582 5.38198 5.68032 5.75792 5.2992C6.13387 4.91809 6.61285 4.65846 7.1343 4.55331C7.65575 4.44816 8.19624 4.50215 8.68743 4.7084C9.17863 4.91466 9.59845 5.264 9.89383 5.71214C10.1892 6.16029 10.3469 6.68712 10.3469 7.2261C10.3458 7.94851 10.0622 8.641 9.55831 9.15182C9.05442 9.66263 8.37133 9.95011 7.65872 9.95123ZM9.14616 7.14138C9.15112 7.16935 9.15312 7.19771 9.15214 7.2261C9.15227 7.57048 9.03657 7.90461 8.82414 8.17336C8.61172 8.44211 8.31526 8.62934 7.9837 8.70428C7.65213 8.77922 7.30526 8.73738 7.00034 8.58556C6.69543 8.43374 6.45069 8.18106 6.3065 7.86924C6.16232 7.55741 6.12731 7.20509 6.20726 6.87038C6.28721 6.53567 6.47733 6.23866 6.74625 6.02824C7.01518 5.81782 7.34684 5.70663 7.68649 5.71303C8.02614 5.71943 8.35349 5.84302 8.61451 6.06343C8.50839 6.11171 8.41819 6.18983 8.35464 6.2886C8.2911 6.38737 8.25688 6.5026 8.25609 6.62052C8.25609 6.78113 8.31904 6.93512 8.43106 7.04868C8.54309 7.16225 8.69502 7.2261 8.85346 7.2261C8.95675 7.22685 9.05811 7.19769 9.14557 7.14198L9.14616 7.14138Z" fill="#212121"/>
</g>
<defs>
<clipPath id="clip0_2522_2488">
<rect width="13.2471" height="13.2471" fill="white" transform="translate(0.662109 0.226807)"/>
</clipPath>
</defs>
</svg>
