<svg width="17" height="17" viewBox="0 0 17 17" fill="none" xmlns="http://www.w3.org/2000/svg">
<g id="Default/Filter">
<path id="filter-Regular_1_" d="M13.0155 1.92383H3.99153C3.57742 1.9242 3.18038 2.09108 2.88756 2.3879C2.59474 2.68472 2.43006 3.08722 2.42969 3.50699V4.9748C2.42924 5.13655 2.46048 5.29676 2.52161 5.44617C2.58274 5.59559 2.67254 5.73119 2.78579 5.84514L6.34055 9.4484C6.42136 9.5299 6.48543 9.62688 6.52904 9.73365C6.57265 9.84041 6.59493 9.95487 6.59461 10.0704V15.1168C6.59461 15.2148 6.62152 15.3109 6.67235 15.3943C6.72318 15.4776 6.79591 15.545 6.88239 15.5888C6.96886 15.6326 7.06568 15.6512 7.16197 15.6424C7.25827 15.6336 7.35025 15.5978 7.4276 15.539L10.2042 13.4281C10.2687 13.3789 10.3211 13.3151 10.3573 13.2418C10.3934 13.1686 10.4123 13.0879 10.4124 13.006V10.0711C10.4121 9.95556 10.4344 9.8411 10.478 9.73433C10.5216 9.62757 10.5857 9.53059 10.6665 9.44909L14.2213 5.84583C14.3344 5.73183 14.4242 5.59618 14.4853 5.44678C14.5465 5.29737 14.5777 5.13723 14.5774 4.97549V3.50699C14.577 3.08722 14.4123 2.68472 14.1195 2.3879C13.8267 2.09108 13.4296 1.9242 13.0155 1.92383ZM3.99153 2.97927H13.0155C13.1536 2.97927 13.286 3.03491 13.3836 3.13388C13.4813 3.23284 13.5361 3.36703 13.5361 3.50699V4.73834H3.47092V3.50699C3.47092 3.36703 3.52577 3.23284 3.6234 3.13388C3.72104 3.03491 3.85346 2.97927 3.99153 2.97927ZM9.9307 8.7026C9.75275 8.88184 9.61166 9.09512 9.51562 9.33004C9.41958 9.56496 9.3705 9.81682 9.37121 10.0711V12.7449L7.63583 14.0642V10.074C7.63655 9.81966 7.58746 9.56771 7.49142 9.33279C7.39538 9.09787 7.2543 8.88459 7.07635 8.70535L4.20672 5.79661H12.7996L9.9307 8.7026Z" fill="#212121"/>
</g>
</svg>
