<svg width="23" height="23" viewBox="0 0 23 23" fill="none" xmlns="http://www.w3.org/2000/svg">
<g id="Default/Lock_Closed">
<path id="lock-Regular_1_" d="M16.3108 9.3847V6.92732C16.3108 5.73344 15.8334 4.58845 14.9838 3.74424C14.1341 2.90004 12.9818 2.42578 11.7802 2.42578C10.5786 2.42578 9.42622 2.90004 8.57657 3.74424C7.72692 4.58845 7.2496 5.73344 7.2496 6.92732V9.38563C6.40694 9.71729 5.6838 10.2925 5.17369 11.0369C4.66357 11.7813 4.38994 12.6606 4.38818 13.5612V16.4042C4.3897 17.5977 4.86752 18.7418 5.71684 19.5857C6.56616 20.4296 7.71764 20.9043 8.91876 20.9058H14.6416C15.8427 20.9043 16.9942 20.4296 17.8435 19.5857C18.6928 18.7418 19.1707 17.5977 19.1722 16.4042V13.5612C19.1705 12.6605 18.8969 11.781 18.3868 11.0365C17.8767 10.2919 17.1535 9.71653 16.3108 9.3847ZM8.68031 6.92732C8.68031 6.11045 9.00691 5.32704 9.58824 4.74943C10.1696 4.17182 10.958 3.84732 11.7802 3.84732C12.6023 3.84732 13.3908 4.17182 13.9721 4.74943C14.5535 5.32704 14.8801 6.11045 14.8801 6.92732V9.08334C14.799 9.0786 14.7236 9.05963 14.6416 9.05963H8.91876C8.83674 9.05963 8.76139 9.07955 8.68031 9.08334V6.92732ZM17.7415 16.4042C17.7405 17.2208 17.4136 18.0036 16.8324 18.581C16.2513 19.1584 15.4634 19.4832 14.6416 19.4842H8.91876C8.09694 19.4832 7.30905 19.1584 6.72793 18.581C6.14681 18.0036 5.8199 17.2208 5.81889 16.4042V13.5612C5.8199 12.7446 6.14681 11.9618 6.72793 11.3844C7.30905 10.807 8.09694 10.4822 8.91876 10.4812H14.6416C15.4634 10.4822 16.2513 10.807 16.8324 11.3844C17.4136 11.9618 17.7405 12.7446 17.7415 13.5612V16.4042ZM12.4955 14.5089V15.4565C12.4955 15.6451 12.4202 15.8258 12.286 15.9591C12.1519 16.0924 11.9699 16.1673 11.7802 16.1673C11.5905 16.1673 11.4085 16.0924 11.2743 15.9591C11.1402 15.8258 11.0648 15.6451 11.0648 15.4565V14.5089C11.0648 14.3203 11.1402 14.1396 11.2743 14.0063C11.4085 13.873 11.5905 13.7981 11.7802 13.7981C11.9699 13.7981 12.1519 13.873 12.286 14.0063C12.4202 14.1396 12.4955 14.3203 12.4955 14.5089Z" fill="#212121"/>
</g>
</svg>
