<svg width="20" height="21" viewBox="0 0 20 21" fill="none" xmlns="http://www.w3.org/2000/svg">
<g id="Default/Minus">
<path id="minus-square-Regular_1_" d="M12.6339 2.2749H7.3567C5.78272 2.27676 4.27374 2.90285 3.16077 4.01582C2.0478 5.1288 1.42171 6.63777 1.41985 8.21175L1.41985 13.489C1.42171 15.0629 2.0478 16.5719 3.16077 17.6849C4.27374 18.7978 5.78272 19.4239 7.3567 19.4258H12.6339C14.2079 19.4239 15.7169 18.7978 16.8298 17.6849C17.9428 16.5719 18.5689 15.0629 18.5707 13.489V8.21175C18.5689 6.63777 17.9428 5.1288 16.8298 4.01582C15.7169 2.90285 14.2079 2.27676 12.6339 2.2749ZM17.2514 13.489C17.25 14.7132 16.7631 15.8869 15.8975 16.7525C15.0318 17.6182 13.8581 18.1051 12.6339 18.1065H7.3567C6.13247 18.1051 4.95878 17.6182 4.09312 16.7525C3.22747 15.8869 2.74054 14.7132 2.73915 13.489L2.73915 8.21175C2.74054 6.98753 3.22747 5.81384 4.09312 4.94818C4.95878 4.08253 6.13247 3.5956 7.3567 3.5942L12.6339 3.5942C13.8581 3.5956 15.0318 4.08253 15.8975 4.94818C16.7631 5.81384 17.25 6.98753 17.2514 8.21175V13.489ZM14.1731 10.8504C14.1731 11.0253 14.1036 11.1931 13.9799 11.3168C13.8562 11.4405 13.6884 11.51 13.5134 11.51H6.47716C6.30221 11.51 6.13442 11.4405 6.01072 11.3168C5.88701 11.1931 5.81751 11.0253 5.81751 10.8504C5.81751 10.6754 5.88701 10.5076 6.01072 10.3839C6.13442 10.2602 6.30221 10.1907 6.47716 10.1907H13.5134C13.6884 10.1907 13.8562 10.2602 13.9799 10.3839C14.1036 10.5076 14.1731 10.6754 14.1731 10.8504Z" fill="#212121"/>
</g>
</svg>
