<svg width="19" height="19" viewBox="0 0 19 19" fill="none" xmlns="http://www.w3.org/2000/svg">
<path id="Phone" d="M18.7685 14.0239C18.749 13.9096 18.7237 13.7963 18.6927 13.6845C18.605 13.3884 18.4349 13.1234 18.2024 12.9201C17.9698 12.7169 17.6843 12.5839 17.3791 12.5366L13.2737 11.8532C12.9797 11.8026 12.6775 11.8324 12.399 11.9396C12.1206 12.0467 11.8762 12.2271 11.6919 12.4618C11.6408 12.5272 11.5915 12.5935 11.546 12.6608C11.5128 12.7196 11.4598 12.7647 11.3964 12.788C11.333 12.8112 11.2634 12.8112 11.2001 12.7879C9.07519 11.8686 7.38061 10.1736 6.46152 8.04821C6.43766 7.98611 6.43689 7.91748 6.45932 7.85485C6.48176 7.79222 6.52589 7.73978 6.58375 7.70697C6.67378 7.6463 6.76097 7.58082 6.84532 7.51731C7.07267 7.33244 7.24755 7.09122 7.35249 6.81759C7.45743 6.54396 7.48878 6.24748 7.44336 5.95795L6.80743 1.92462C6.76221 1.62441 6.63489 1.34247 6.43954 1.11011C6.24419 0.877745 5.9884 0.703972 5.70047 0.607909C5.54306 0.556384 5.38217 0.516081 5.21904 0.48745C4.62317 0.382414 4.01136 0.411837 3.42831 0.573542C2.84526 0.735246 2.30571 1.02523 1.849 1.42219C1.36217 1.83842 0.974698 2.35845 0.715089 2.94406C0.455481 3.52967 0.330318 4.16592 0.348764 4.80625C0.448543 8.51401 1.96557 12.0425 4.58762 14.6653C7.20966 17.2881 10.7372 18.8057 14.4441 18.9058H14.5606C15.1782 18.9059 15.7886 18.7724 16.3499 18.5145C16.9111 18.2567 17.41 17.8805 17.8123 17.4118C18.2135 16.9538 18.5076 16.412 18.673 15.8259C18.8385 15.2398 18.871 14.6242 18.7685 14.0239ZM16.7376 16.4819C16.4574 16.8028 16.1106 17.0586 15.7213 17.2315C15.3321 17.4044 14.9097 17.4902 14.4839 17.483C11.1407 17.392 7.95944 16.0229 5.59473 13.6573C3.23002 11.2917 1.86167 8.10952 1.77126 4.76552C1.75934 4.33642 1.84358 3.91011 2.01773 3.51777C2.19188 3.12544 2.45153 2.77704 2.77774 2.4981C3.25389 2.0783 3.86596 1.84524 4.50068 1.84212C4.65954 1.84225 4.81809 1.85615 4.97453 1.88377C5.07089 1.90058 5.16596 1.92441 5.25889 1.95494C5.29907 1.96952 5.33439 1.99495 5.36099 2.02842C5.38759 2.06188 5.40443 2.10203 5.40957 2.14448L6.04545 6.17792C6.05247 6.22074 6.04815 6.26461 6.03284 6.30521C6.01754 6.34581 5.99181 6.38171 5.95828 6.40924C5.90331 6.45379 5.84742 6.49546 5.78961 6.53432C5.45576 6.75193 5.20968 7.08075 5.09502 7.46247C4.98036 7.84418 5.0045 8.25422 5.16316 8.61984C6.22544 11.0738 8.182 13.0311 10.6352 14.094C11.0013 14.2509 11.4109 14.2738 11.7922 14.1587C12.1734 14.0436 12.502 13.7979 12.7202 13.4647C12.7487 13.4239 12.778 13.3831 12.8102 13.3414C12.8379 13.3086 12.8738 13.2835 12.9142 13.2689C12.9546 13.2542 12.9982 13.2505 13.0406 13.258L17.146 13.9414C17.1845 13.9455 17.2213 13.9597 17.2526 13.9825C17.2839 14.0053 17.3085 14.0359 17.3242 14.0714C17.3426 14.1369 17.3574 14.2033 17.3687 14.2704C17.4342 14.6629 17.4116 15.0651 17.3024 15.4478C17.1933 15.8305 17.0003 16.184 16.7376 16.4828V16.4819Z" fill="#484848"/>
</svg>
