<svg width="29" height="29" viewBox="0 0 29 29" fill="none" xmlns="http://www.w3.org/2000/svg">
<g id="Default/Add" clip-path="url(#clip0_3858_8265)">
<path id="plus-square-Regular_1_" d="M9.95101 6.45365L6.21947 10.1852C5.10782 11.2995 4.48352 12.8092 4.48352 14.3832C4.48352 15.9572 5.10782 17.4669 6.21947 18.5812L9.95101 22.3127C11.0653 23.4244 12.575 24.0487 14.149 24.0487C15.723 24.0487 17.2327 23.4244 18.347 22.3127L22.0785 18.5812C23.1902 17.4669 23.8145 15.9572 23.8145 14.3832C23.8145 12.8092 23.1902 11.2995 22.0785 10.1852L18.347 6.45365C17.2327 5.34199 15.723 4.7177 14.149 4.7177C12.575 4.7177 11.0653 5.34199 9.95101 6.45365ZM21.1456 11.1181C22.0103 11.9847 22.4959 13.159 22.4959 14.3832C22.4959 15.6074 22.0103 16.7816 21.1456 17.6483L17.4141 21.3798C16.5475 22.2445 15.3732 22.7301 14.149 22.7301C12.9248 22.7301 11.7505 22.2445 10.8839 21.3798L7.15236 17.6483C6.28769 16.7816 5.80207 15.6074 5.80207 14.3832C5.80207 13.159 6.28769 11.9847 7.15236 11.1181L10.8839 7.38653C11.7505 6.52187 12.9248 6.03625 14.149 6.03625C15.3732 6.03625 16.5475 6.52187 17.4141 7.38653L21.1456 11.1181ZM17.1031 11.429C17.2268 11.5527 17.2964 11.7205 17.2964 11.8955C17.2964 12.0704 17.2268 12.2382 17.1031 12.3619L15.0819 14.3832L17.1031 16.4044C17.2268 16.5281 17.2963 16.6959 17.2963 16.8708C17.2963 17.0458 17.2268 17.2136 17.1031 17.3373C16.9794 17.461 16.8116 17.5305 16.6367 17.5305C16.4617 17.5305 16.294 17.461 16.1703 17.3373L14.149 15.3161L12.1277 17.3373C12.004 17.461 11.8363 17.5305 11.6613 17.5305C11.4864 17.5305 11.3186 17.461 11.1949 17.3373C11.0712 17.2136 11.0016 17.0458 11.0016 16.8709C11.0016 16.6959 11.0712 16.5281 11.1949 16.4044L13.2161 14.3832L11.1949 12.3619C11.0712 12.2382 11.0016 12.0704 11.0016 11.8955C11.0016 11.7205 11.0712 11.5527 11.1949 11.429C11.3186 11.3053 11.4864 11.2358 11.6613 11.2358C11.8363 11.2358 12.004 11.3053 12.1277 11.429L14.149 13.4503L16.1703 11.429C16.294 11.3053 16.4617 11.2358 16.6367 11.2358C16.8116 11.2358 16.9794 11.3053 17.1031 11.429Z" fill="white"/>
</g>
<defs>
<clipPath id="clip0_3858_8265">
<rect width="20.0094" height="20.0094" fill="white" transform="translate(0 14.3832) rotate(-45)"/>
</clipPath>
</defs>
</svg>
