<svg width="20" height="17" viewBox="0 0 20 17" fill="none" xmlns="http://www.w3.org/2000/svg">
<g id="sliders-h-Filled_1_">
<path id="sliders-h-Filled_1__2" d="M6.69318 0.752938C5.98357 0.755504 5.29369 0.986731 4.72578 1.4122C4.15786 1.83767 3.74216 2.43473 3.54029 3.11502H1.49659C1.24601 3.11502 1.0057 3.21464 0.828507 3.39183C0.651316 3.56902 0.551758 3.80927 0.551758 4.05986C0.551758 4.31044 0.651316 4.5507 0.828507 4.72789C1.0057 4.90508 1.24601 5.00469 1.49659 5.00469H3.54029C3.71673 5.59071 4.0526 6.11618 4.51044 6.52229C4.96829 6.9284 5.53005 7.19926 6.13294 7.3045C6.73582 7.40974 7.3561 7.34509 7.92445 7.11811C8.49281 6.89114 8.98685 6.51055 9.35139 6.01896C9.71593 5.52737 9.9366 4.94414 9.98874 4.33436C10.0409 3.72458 9.92249 3.11237 9.64671 2.56602C9.37093 2.01968 8.94866 1.56076 8.42709 1.24058C7.90552 0.920398 7.30518 0.75159 6.69318 0.752938ZM6.69318 5.47711C6.41288 5.47711 6.13885 5.39409 5.90578 5.23836C5.67272 5.08263 5.4911 4.86114 5.38383 4.60217C5.27656 4.3432 5.24847 4.0582 5.30315 3.78328C5.35783 3.50836 5.49282 3.25602 5.69103 3.05782C5.88923 2.85961 6.14174 2.72451 6.41666 2.66983C6.69158 2.61514 6.97658 2.64329 7.23555 2.75056C7.49452 2.85783 7.71584 3.03951 7.87157 3.27257C8.0273 3.50564 8.11043 3.77955 8.11043 4.05986C8.11043 4.43574 7.96113 4.79611 7.69534 5.0619C7.42955 5.32769 7.06906 5.47711 6.69318 5.47711ZM11.8898 4.05986C11.8898 3.80927 11.9893 3.56902 12.1665 3.39183C12.3437 3.21464 12.584 3.11502 12.8346 3.11502H18.5036C18.7542 3.11502 18.9945 3.21464 19.1717 3.39183C19.3489 3.56902 19.4484 3.80927 19.4484 4.05986C19.4484 4.31044 19.3489 4.5507 19.1717 4.72789C18.9945 4.90508 18.7542 5.00469 18.5036 5.00469H12.8346C12.584 5.00469 12.3437 4.90508 12.1665 4.72789C11.9893 4.5507 11.8898 4.31044 11.8898 4.05986ZM18.5036 12.5634H16.4599C16.233 11.8022 15.7396 11.1481 15.0701 10.7208C14.4005 10.2934 13.5995 10.1212 12.8134 10.2359C12.0274 10.3506 11.309 10.7443 10.7894 11.3452C10.2699 11.946 9.98396 12.7139 9.98396 13.5082C9.98396 14.3025 10.2699 15.0704 10.7894 15.6712C11.309 16.2721 12.0274 16.6658 12.8134 16.7805C13.5995 16.8952 14.4005 16.723 15.0701 16.2957C15.7396 15.8683 16.233 15.2143 16.4599 14.453H18.5036C18.7542 14.453 18.9945 14.3534 19.1717 14.1762C19.3489 13.999 19.4484 13.7588 19.4484 13.5082C19.4484 13.2576 19.3489 13.0174 19.1717 12.8402C18.9945 12.663 18.7542 12.5634 18.5036 12.5634ZM13.307 14.9255C13.0267 14.9255 12.7527 14.8424 12.5196 14.6867C12.2866 14.531 12.1049 14.3095 11.9977 14.0505C11.8904 13.7915 11.8623 13.5065 11.917 13.2316C11.9717 12.9567 12.1067 12.7044 12.3049 12.5062C12.5031 12.308 12.7556 12.1729 13.0305 12.1182C13.3054 12.0635 13.5904 12.0916 13.8494 12.1989C14.1084 12.3062 14.3297 12.4879 14.4854 12.7209C14.6411 12.954 14.7243 13.2279 14.7243 13.5082C14.7243 13.8841 14.575 14.2445 14.3092 14.5102C14.0434 14.776 13.6829 14.9255 13.307 14.9255ZM8.11043 13.5082C8.11043 13.7588 8.01088 13.999 7.83368 14.1762C7.65649 14.3534 7.41619 14.453 7.1656 14.453H1.49659C1.24601 14.453 1.0057 14.3534 0.828507 14.1762C0.651316 13.999 0.551758 13.7588 0.551758 13.5082C0.551758 13.2576 0.651316 13.0174 0.828507 12.8402C1.0057 12.663 1.24601 12.5634 1.49659 12.5634H7.1656C7.41619 12.5634 7.65649 12.663 7.83368 12.8402C8.01088 13.0174 8.11043 13.2576 8.11043 13.5082Z" fill="#2C9F36"/>
</g>
</svg>
