<svg width="14" height="14" viewBox="0 0 14 14" fill="none" xmlns="http://www.w3.org/2000/svg">
<g id="Default/Trash" clip-path="url(#clip0_2522_2543)">
<path id="trash-Filled_1_" d="M13.4323 3.88696C13.4323 4.04101 13.3727 4.1887 13.2665 4.29763C13.1603 4.40656 13.0162 4.4678 12.866 4.4678H2.67228C2.52208 4.4678 2.37804 4.40656 2.27184 4.29763C2.16563 4.1887 2.10596 4.04101 2.10596 3.88696C2.10596 3.73291 2.16563 3.58522 2.27184 3.47629C2.37804 3.36736 2.52208 3.30612 2.67228 3.30612H4.68782C4.80672 3.30615 4.92259 3.26781 5.01906 3.1965C5.11552 3.12519 5.18766 3.02448 5.22524 2.90878L5.40418 2.35814C5.47939 2.12654 5.62385 1.92518 5.817 1.78255C6.01015 1.63991 6.2422 1.5633 6.4802 1.5636H9.06206C9.3 1.56326 9.53199 1.63974 9.72513 1.78227C9.91827 1.92479 10.0627 2.12608 10.138 2.35757L10.317 2.90934C10.3547 3.02494 10.4269 3.12559 10.5233 3.19679C10.6198 3.26798 10.7356 3.30619 10.8545 3.30612H12.866C13.0162 3.30612 13.1603 3.36736 13.2665 3.47629C13.3727 3.58522 13.4323 3.73291 13.4323 3.88696ZM11.9033 5.64692L11.5578 10.9906C11.5218 11.5052 11.2976 11.9868 10.93 12.3391C10.5625 12.6913 10.0787 12.8881 9.57571 12.89H5.96259C5.46044 12.8883 4.97739 12.6924 4.60994 12.3413C4.24249 11.9903 4.01769 11.51 3.98047 10.9964L3.63503 5.64692C3.63292 5.60789 3.63833 5.56879 3.65096 5.53192C3.66359 5.49504 3.68321 5.46104 3.70865 5.43194C3.73584 5.403 3.76836 5.37997 3.80433 5.36402C3.84029 5.34806 3.879 5.33956 3.91818 5.33906H11.6201C11.6593 5.33959 11.698 5.34807 11.7339 5.36402C11.7699 5.37997 11.8024 5.40303 11.8296 5.43194C11.8551 5.46103 11.8747 5.49504 11.8874 5.53192C11.9 5.5688 11.9054 5.60789 11.9033 5.64692ZM7.20283 7.372C7.20283 7.21795 7.14315 7.07026 7.03695 6.96133C6.93074 6.8524 6.78671 6.79116 6.63651 6.79116C6.48631 6.79116 6.34227 6.8524 6.23607 6.96133C6.12986 7.07026 6.07019 7.21795 6.07019 7.372V10.2762C6.07019 10.4302 6.12986 10.5779 6.23607 10.6869C6.34227 10.7958 6.48631 10.857 6.63651 10.857C6.78671 10.857 6.93074 10.7958 7.03695 10.6869C7.14315 10.5779 7.20283 10.4302 7.20283 10.2762V7.372ZM9.4681 7.372C9.4681 7.21795 9.40843 7.07026 9.30222 6.96133C9.19602 6.8524 9.05198 6.79116 8.90178 6.79116C8.75159 6.79116 8.60755 6.8524 8.50134 6.96133C8.39514 7.07026 8.33547 7.21795 8.33547 7.372V10.2762C8.33547 10.4302 8.39514 10.5779 8.50134 10.6869C8.60755 10.7958 8.75159 10.857 8.90178 10.857C9.05198 10.857 9.19602 10.7958 9.30222 10.6869C9.40843 10.5779 9.4681 10.4302 9.4681 10.2762V7.372Z" fill="#212121"/>
</g>
<defs>
<clipPath id="clip0_2522_2543">
<rect width="13.2141" height="13.2141" fill="white" transform="translate(0.785645 0.243286)"/>
</clipPath>
</defs>
</svg>
