<svg width="23" height="23" viewBox="0 0 23 23" fill="none" xmlns="http://www.w3.org/2000/svg">
<g id="Default/User">
<path id="User" d="M11.7792 12.3674C12.7697 12.3674 13.738 12.0759 14.5616 11.5297C15.3851 10.9835 16.027 10.2071 16.4061 9.29882C16.7851 8.39052 16.8843 7.39116 16.6911 6.42692C16.4978 5.46268 16.0208 4.57694 15.3204 3.88176C14.62 3.18658 13.7277 2.71308 12.7563 2.52128C11.7848 2.32948 10.7778 2.42799 9.86271 2.80422C8.9476 3.18044 8.16544 3.81754 7.61514 4.63498C7.06485 5.45243 6.77115 6.41349 6.77115 7.39663C6.77266 8.71451 7.30077 9.97799 8.23964 10.9099C9.17851 11.8418 10.4515 12.3659 11.7792 12.3674ZM11.7792 3.84604C12.4867 3.84604 13.1783 4.05425 13.7666 4.4444C14.3549 4.83454 14.8134 5.3891 15.0841 6.03788C15.3549 6.68667 15.4257 7.40054 15.2877 8.08929C15.1496 8.77804 14.809 9.41067 14.3087 9.90723C13.8084 10.4038 13.171 10.742 12.4771 10.879C11.7832 11.016 11.0639 10.9457 10.4103 10.677C9.75665 10.4082 9.19799 9.9531 8.80492 9.36921C8.41186 8.78532 8.20203 8.09886 8.20203 7.39663C8.20304 6.45526 8.58027 5.55271 9.25091 4.88706C9.92154 4.22142 10.8308 3.84705 11.7792 3.84604ZM19.1721 17.307V18.2643C19.174 19.1453 18.8474 19.9958 18.2554 20.6521C18.1937 20.725 18.118 20.7849 18.0326 20.8282C17.9472 20.8714 17.8539 20.8972 17.7582 20.904C17.6626 20.9108 17.5666 20.8984 17.4758 20.8676C17.3851 20.8368 17.3016 20.7882 17.2301 20.7247C17.1587 20.6612 17.1008 20.5842 17.06 20.4981C17.0192 20.412 16.9962 20.3185 16.9924 20.2235C16.9887 20.1284 17.0042 20.0336 17.0381 19.9446C17.072 19.8555 17.1236 19.7741 17.1898 19.7053C17.5463 19.3092 17.743 18.7964 17.7421 18.2652V17.308C17.7485 16.6193 17.5226 15.9482 17.1002 15.4017C16.6779 14.8553 16.0835 14.4647 15.4117 14.2923C15.171 14.2327 14.9165 14.2666 14.7001 14.3871C13.8075 14.8782 12.8037 15.1358 11.7831 15.1358C10.7625 15.1358 9.75859 14.8782 8.86594 14.3871C8.64863 14.2642 8.39169 14.2302 8.14957 14.2923C7.47769 14.465 6.88326 14.8557 6.46082 15.4023C6.03839 15.9489 5.81216 16.62 5.81816 17.3089V18.2661C5.81697 18.7974 6.01373 19.3103 6.37052 19.7062C6.48994 19.8475 6.54927 20.0294 6.53605 20.2133C6.52282 20.3972 6.43808 20.5688 6.29966 20.6918C6.16125 20.8148 5.98004 20.8795 5.79441 20.8723C5.60877 20.8651 5.43328 20.7864 5.30499 20.6531C4.71324 19.9965 4.38677 19.1461 4.38827 18.2652V17.308C4.38187 16.3029 4.71425 15.3245 5.33253 14.5284C5.95081 13.7324 6.81946 13.1643 7.80041 12.9147C8.39848 12.7654 9.03148 12.8495 9.56898 13.1496C10.2471 13.5216 11.0092 13.7167 11.784 13.7167C12.5588 13.7167 13.3209 13.5216 13.999 13.1496C14.5358 12.8523 15.1667 12.7697 15.7628 12.9185C16.7428 13.1677 17.6108 13.7351 18.2285 14.5303C18.8463 15.3255 19.1784 16.3029 19.1721 17.307Z" fill="#212121"/>
</g>
</svg>
