<svg width="30" height="30" viewBox="0 0 30 30" fill="none" xmlns="http://www.w3.org/2000/svg">
<rect width="29.1956" height="29.1956" rx="14.5978" fill="#DE3B3B"/>
<path d="M14.9998 5.91626C13.2032 5.91626 11.447 6.44903 9.95313 7.44717C8.45931 8.44532 7.29502 9.86396 6.60749 11.5238C5.91996 13.1837 5.74006 15.0101 6.09056 16.7722C6.44106 18.5343 7.30621 20.1529 8.5766 21.4233C9.847 22.6937 11.4656 23.5588 13.2277 23.9093C14.9898 24.2598 16.8162 24.0799 18.4761 23.3924C20.1359 22.7049 21.5546 21.5407 22.5528 20.0468C23.5509 18.553 24.0836 16.7967 24.0836 15.0001C24.0809 12.5917 23.123 10.2828 21.4201 8.57981C19.7171 6.87685 17.4082 5.91897 14.9998 5.91626ZM14.9998 22.6864C13.4796 22.6864 11.9935 22.2356 10.7295 21.391C9.46553 20.5464 8.48036 19.346 7.89861 17.9415C7.31685 16.537 7.16462 14.9915 7.4612 13.5005C7.75778 12.0096 8.48985 10.64 9.5648 9.56505C10.6398 8.4901 12.0093 7.75808 13.5003 7.4615C14.9913 7.16493 16.5368 7.31715 17.9412 7.89891C19.3457 8.48067 20.5462 9.46575 21.3907 10.7298C22.2353 11.9938 22.6861 13.4799 22.6861 15.0001C22.6839 17.0379 21.8734 18.9917 20.4324 20.4327C18.9914 21.8737 17.0377 22.6842 14.9998 22.6864ZM15.9315 18.7268C15.9315 18.911 15.8769 19.0911 15.7745 19.2444C15.6721 19.3976 15.5266 19.517 15.3564 19.5875C15.1861 19.658 14.9988 19.6765 14.8181 19.6406C14.6373 19.6046 14.4713 19.5159 14.341 19.3856C14.2108 19.2553 14.122 19.0892 14.0861 18.9085C14.0501 18.7278 14.0685 18.5405 14.1391 18.3702C14.2096 18.2 14.329 18.0545 14.4822 17.9522C14.6354 17.8498 14.8156 17.7951 14.9998 17.7951C15.2469 17.7951 15.4839 17.8932 15.6586 18.0679C15.8333 18.2427 15.9315 18.4797 15.9315 18.7268ZM14.3011 15.0001V11.2734C14.3011 11.0881 14.3747 10.9104 14.5057 10.7793C14.6368 10.6483 14.8145 10.5746 14.9998 10.5746C15.1851 10.5746 15.3629 10.6483 15.4939 10.7793C15.625 10.9104 15.6986 11.0881 15.6986 11.2734V15.0001C15.6986 15.1854 15.625 15.3631 15.4939 15.4941C15.3629 15.6252 15.1851 15.6988 14.9998 15.6988C14.8145 15.6988 14.6368 15.6252 14.5057 15.4941C14.3747 15.3631 14.3011 15.1854 14.3011 15.0001Z" fill="white"/>
</svg>
